<svg width="128" height="128" viewBox="0 0 128 128" fill="none" xmlns="http://www.w3.org/2000/svg">
  <rect width="128" height="128" rx="30" fill="#020617"/>
  <circle cx="38" cy="36" r="14" fill="#4F46E5"/>
  <circle cx="90" cy="92" r="14" fill="#10B981"/>
  <path d="M38 82c8 10 18 15 30 15 15 0 25-8 25-20 0-11-7-17-22-21l-12-3c-8-2-11-5-11-10 0-6 6-10 15-10 9 0 17 3 24 9l7-13c-8-7-19-11-31-11-17 0-29 10-29 25 0 12 8 19 23 23l12 3c8 2 11 5 11 10 0 6-6 10-15 10-10 0-18-4-25-12l-3 5Z" fill="white"/>
</svg>
